<svg width="84" height="98" viewBox="0 0 84 98" fill="none" xmlns="http://www.w3.org/2000/svg">
<g filter="url(#filter0_d_79_3877)">
<path d="M41.6133 18C28.5933 18 18 28.5933 18 41.6133C18 46.7658 19.6275 51.6616 22.7105 55.7691L40.1577 79.2675C40.2013 79.3244 40.2679 79.3462 40.3164 79.3971C41.1882 80.3307 42.4464 80.0958 43.0676 79.2675C48.0918 72.5638 57.301 60.0438 60.8418 55.3211C60.8418 55.3211 60.843 55.3175 60.8442 55.315L60.866 55.286C63.7189 51.2778 65.2266 46.5503 65.2266 41.6133C65.2266 28.5933 54.6333 18 41.6133 18ZM41.6133 54.3523C34.6032 54.3523 28.8742 48.6234 28.8742 41.6133C28.8742 34.6032 34.6032 28.8742 41.6133 28.8742C48.6234 28.8742 54.3523 34.6032 54.3523 41.6133C54.3523 48.6234 48.6234 54.3523 41.6133 54.3523Z" fill="#FF7900"/>
<rect x="24.6133" y="26" width="33" height="33" fill="#FF7900"/>
<circle cx="41.6133" cy="42" r="13" fill="white"/>
</g>
<defs>
<filter id="filter0_d_79_3877" x="-7.38672" y="0" width="98" height="98" filterUnits="userSpaceOnUse" color-interpolation-filters="sRGB">
<feFlood flood-opacity="0" result="BackgroundImageFix"/>
<feColorMatrix in="SourceAlpha" type="matrix" values="0 0 0 0 0 0 0 0 0 0 0 0 0 0 0 0 0 0 127 0" result="hardAlpha"/>
<feOffset/>
<feGaussianBlur stdDeviation="9"/>
<feColorMatrix type="matrix" values="0 0 0 0 1 0 0 0 0 0.47451 0 0 0 0 0 0 0 0 0.48 0"/>
<feBlend mode="normal" in2="BackgroundImageFix" result="effect1_dropShadow_79_3877"/>
<feBlend mode="normal" in="SourceGraphic" in2="effect1_dropShadow_79_3877" result="shape"/>
</filter>
</defs>
</svg>
